#!OML:ASF F:\VICON\USERDATA\INSTALL\rory3\rory3.ASF
:FULLY-SPECIFIED
:DEGREES
1110
root -2.82613 16.9301 3.79683 -178.226 -78.5442 176.663
lowerback 8.39254 0.699473 -3.87806
upperback -2.14101 0.555126 0.735042
thorax -7.01926 0.454378 2.87787
lowerneck -25.8897 3.07017 -8.3324
upperneck 14.2662 6.80864 1.26432
head 8.30566 2.83706 2.69705
rclavicle -4.2571e-014 -8.94531e-015
rhumerus 89.0452 -36.1822 -33.8014
rradius 36.2084
rwrist -6.16379
rhand -38.6524 -10.6022
rfingers 7.12502
rthumb -11.6684 -40.2572
lclavicle -4.2571e-014 -8.94531e-015
lhumerus 81.4917 37.877 37.0908
lradius 33.1902
lwrist 13.8912
lhand -21.4508 25.8645
lfingers 7.12502
lthumb 4.93907 55.787
rfemur -9.74143 5.0494 9.05416
rtibia 46.228
rfoot -23.2114 5.21052
rtoes -13.7567
lfemur -10.4109 -1.92672 -6.53703
ltibia 32.1389
lfoot -16.4504 -3.07635
ltoes -26.321
1111
root -2.78946 16.9205 3.74699 -176.825 -78.8767 175.231
lowerback 8.55079 0.796697 -3.9773
upperback -2.10107 0.652751 0.515741
thorax -7.07407 0.501483 2.68748
lowerneck -25.7837 3.13718 -8.33573
upperneck 14.5495 6.88753 1.35415
head 8.37782 2.87534 2.74399
rclavicle 2.90738e-014 -1.39149e-015
rhumerus 89.1584 -36.3345 -34.1175
rradius 36.4117
rwrist -6.39212
rhand -38.8055 -11.0311
rfingers 7.12502
rthumb -11.8161 -40.6778
lclavicle 2.90738e-014 -1.39149e-015
lhumerus 81.297 37.8566 36.7566
lradius 33.7127
lwrist 14.5354
lhand -21.6304 25.6369
lfingers 7.12502
lthumb 4.76566 55.5633
rfemur -10.0642 4.38003 8.98923
rtibia 46.8096
rfoot -23.3767 4.80517
rtoes -14.5054
lfemur -10.542 -2.1876 -6.58309
ltibia 31.9397
lfoot -16.0877 -3.38067
ltoes -26.32
1112
root -2.74835 16.9235 3.70246 -170.685 -79.0286 169.257
lowerback 8.51777 0.961528 -4.813
upperback -2.19652 0.741767 0.036222
thorax -7.17301 0.571483 2.63884
lowerneck -25.6177 3.13406 -8.51407
upperneck 14.7908 6.88134 1.6628
head 8.41467 2.89215 2.8786
rclavicle -8.41938e-015 7.82715e-016
rhumerus 89.5346 -36.2385 -34.8145
rradius 36.4303
rwrist -6.47882
rhand -38.9672 -10.8901
rfingers 7.12502
rthumb -11.972 -40.5278
lclavicle -8.41938e-015 7.82715e-016
lhumerus 80.9017 37.7353 36.2763
lradius 34.2847
lwrist 15.1331
lhand -21.5575 25.2853
lfingers 7.12502
lthumb 4.83606 55.2101
rfemur -10.652 3.50432 7.8941
rtibia 47.2392
rfoot -23.2745 4.77614
rtoes -13.1883
lfemur -10.8718 -2.50751 -7.64505
ltibia 31.6359
lfoot -15.6066 -3.34955
ltoes -26.526
1113
root -2.72108 16.9278 3.60201 -176.221 -79.5832 174.463
lowerback 8.7627 1.04515 -4.2178
upperback -2.02679 0.931682 0.275975
thorax -7.13917 0.642157 2.52712
lowerneck -25.3327 3.00439 -8.68755
upperneck 14.7065 6.70544 1.81853
head 8.33696 2.82389 2.92569
rclavicle 1.52583e-014 1.83876e-015
rhumerus 89.7902 -36.1969 -35.3157
rradius 36.4505
rwrist -7.06587
rhand -39.1797 -10.8661
rfingers 7.12502
rthumb -12.1769 -40.4917
lclavicle 1.52583e-014 1.83876e-015
lhumerus 80.4318 37.5385 35.5951
lradius 34.8404
lwrist 15.7133
lhand -21.5045 25.0236
lfingers 7.12502
lthumb 4.88725 54.9472
rfemur -10.1792 3.40487 9.66934
rtibia 47.3451
rfoot -23.7301 3.68663
rtoes -14.1266
lfemur -10.473 -2.54218 -6.06337
ltibia 31.22
lfoot -15.0354 -4.05259
ltoes -26.5465
1114
root -2.69117 16.948 3.52387 -177.642 -79.9948 175.794
lowerback 8.77604 1.13996 -3.95778
upperback -1.97922 1.08102 0.172672
thorax -7.09897 0.7001 2.24935
lowerneck -25.4808 3.57762 -8.9858
upperneck 15.8133 7.53266 2.37781
head 8.6561 3.21668 3.30785
rclavicle 2.07513e-014 -2.38542e-015
rhumerus 89.8844 -36.1938 -35.7972
rradius 36.6343
rwrist -7.63875
rhand -39.2182 -11.0125
rfingers 7.12502
rthumb -12.214 -40.6359
lclavicle 2.07513e-014 -2.38542e-015
lhumerus 79.76 37.3086 34.5732
lradius 35.4579
lwrist 16.4333
lhand -21.4367 24.923
lfingers 7.12502
lthumb 4.95269 54.8451
rfemur -9.91833 3.26156 10.3985
rtibia 47.1804
rfoot -23.9659 2.93065
rtoes -16.2841
lfemur -10.2688 -2.9112 -5.45515
ltibia 30.618
lfoot -14.3431 -4.31816
ltoes -26.4958
1115
root -2.66048 16.9872 3.45539 -174.897 -80.4057 173.106
lowerback 8.6026 1.21002 -4.21265
upperback -2.01817 1.1275 -0.161022
thorax -7.04338 0.724137 2.03623
lowerneck -25.0553 3.1913 -8.55227
upperneck 15.5086 6.85927 2.12087
head 8.54942 2.91285 3.04505
rclavicle -4.38941e-014 1.25234e-014
rhumerus 89.9708 -36.055 -36.2483
rradius 36.7303
rwrist -8.27631
rhand -39.4426 -11.329
rfingers 7.12502
rthumb -12.4305 -40.9394
lclavicle -4.38941e-014 1.25234e-014
lhumerus 78.8396 37.0721 33.3595
lradius 36.1027
lwrist 17.127
lhand -21.3791 24.8194
lfingers 7.12502
lthumb 5.00828 54.7402
rfemur -9.72643 2.76164 10.2221
rtibia 46.6937
rfoot -23.8385 2.69832
rtoes -17.1117
lfemur -10.2144 -3.65087 -5.69359
ltibia 29.898
lfoot -13.3486 -4.15026
ltoes -26.0592
1116
root -2.63328 17.034 3.37777 -172.482 -80.936 170.727
lowerback 8.37217 1.28911 -4.46337
upperback -2.05512 1.19569 -0.420091
thorax -6.95605 0.759672 1.89767
lowerneck -24.5743 3.00715 -8.55419
upperneck 15.3895 6.55554 2.14698
head 8.44601 2.78128 2.99875
rclavicle -3.85145e-016 1.59028e-015
rhumerus 90.2563 -35.756 -36.7776
rradius 36.4866
rwrist -8.7613
rhand -39.7361 -11.4393
rfingers 7.12502
rthumb -12.7134 -41.0323
lclavicle -3.85145e-016 1.59028e-015
lhumerus 77.8063 36.6787 32.1406
lradius 36.861
lwrist 17.7758
lhand -21.3271 24.734
lfingers 7.12502
lthumb 5.05851 54.6536
rfemur -9.33614 2.11812 10.1911
rtibia 45.9867
rfoot -23.5659 2.5801
rtoes -16.442
lfemur -10.0511 -4.48333 -5.7899
ltibia 28.9761
lfoot -12.1745 -3.96805
ltoes -25.8831
1117
root -2.61173 17.0886 3.29146 -172.093 -81.6393 170.353
lowerback 8.08048 1.31964 -4.38426
upperback -2.07653 1.24809 -0.579627
thorax -6.80903 0.775486 1.68303
lowerneck -24.2082 2.92535 -8.74689
upperneck 15.6124 6.43043 2.40346
head 8.45276 2.7348 3.09714
rclavicle 1.75303e-014 7.55382e-015
rhumerus 90.9326 -35.186 -38.0569
rradius 36.1005
rwrist -8.27377
rhand -39.6673 -11.8092
rfingers 7.12502
rthumb -12.647 -41.4063
lclavicle 1.75303e-014 7.55382e-015
lhumerus 76.9319 36.1699 31.066
lradius 37.5251
lwrist 18.3119
lhand -21.1555 24.4214
lfingers 7.12502
lthumb 5.22423 54.337
rfemur -8.74781 1.48397 10.6029
rtibia 45.0817
rfoot -23.2208 2.2834
rtoes -16.487
lfemur -9.85658 -5.0163 -5.4582
ltibia 27.9073
lfoot -10.7132 -4.09038
ltoes -26.2527
1118
root -2.58875 17.1563 3.20404 -172.775 -82.4346 171.098
lowerback 7.81791 1.33441 -4.13378
upperback -2.13139 1.2999 -0.674203
thorax -6.71058 0.787502 1.44036
lowerneck -24.0229 2.84383 -8.8291
upperneck 16.0267 6.31723 2.52453
head 8.56414 2.67531 3.14477
rclavicle -2.64756e-014 0
rhumerus 91.222 -34.746 -38.8283
rradius 35.8899
rwrist -8.15503
rhand -39.3555 -12.3265
rfingers 7.12502
rthumb -12.3464 -41.942
lclavicle -2.64756e-014 0
lhumerus 75.9695 35.5932 29.9634
lradius 38.2888
lwrist 18.8384
lhand -20.8742 24.0628
lfingers 7.12502
lthumb 5.49579 53.9715
rfemur -8.09279 0.857526 11.1942
rtibia 43.9771
rfoot -22.573 2.29383
rtoes -14.4427
lfemur -9.79961 -5.42105 -4.9318
ltibia 26.8413
lfoot -8.91046 -4.30332
ltoes -26.8984
1119
root -2.56915 17.2401 3.11417 -172.449 -83.2048 170.832
lowerback 7.51752 1.37132 -4.18344
upperback -2.1947 1.35234 -0.744364
thorax -6.60826 0.812522 1.39271
lowerneck -24.0389 2.74828 -8.9792
upperneck 16.6279 6.20265 2.78401
head 8.76679 2.61912 3.26195
rclavicle -6.1002e-015 -7.55382e-015
rhumerus 91.3003 -34.4913 -38.9713
rradius 35.6702
rwrist -8.45389
rhand -39.0826 -12.8266
rfingers 7.12502
rthumb -12.0833 -42.4577
lclavicle -6.1002e-015 -7.55382e-015
lhumerus 74.9161 34.9596 28.8507
lradius 39.1119
lwrist 19.4995
lhand -20.5246 23.9437
lfingers 7.12502
lthumb 5.83336 53.8434
rfemur -7.38058 0.295845 11.6119
rtibia 42.75
rfoot -21.6349 2.69435
rtoes -8.44713
lfemur -9.71896 -6.10367 -4.58293
ltibia 25.8022
lfoot -7.04824 -4.20148
ltoes -27.0122
1120
root -2.54965 17.3302 3.02581 -172.214 -84.1144 170.504
lowerback 7.31934 1.31895 -4.11024
upperback -2.15678 1.29003 -0.898452
thorax -6.44499 0.771913 1.20352
lowerneck -24.0224 2.73455 -8.91499
upperneck 17.0116 6.14072 2.92619
head 8.89705 2.59677 3.3049
rclavicle 1.63997e-015 4.77083e-015
rhumerus 91.6186 -34.2633 -39.3877
rradius 35.3404
rwrist -8.6175
rhand -38.8921 -13.3289
rfingers 7.12502
rthumb -11.8996 -42.9707
lclavicle 1.63997e-015 4.77083e-015
lhumerus 73.5523 34.4918 27.1826
lradius 40.1376
lwrist 20.4499
lhand -19.9516 23.5244
lfingers 7.12502
lthumb 6.38653 53.4081
rfemur -6.45028 -0.33207 12.0307
rtibia 41.4446
rfoot -20.7128 2.81055
rtoes -4.67051
lfemur -9.56771 -7.24005 -4.24165
ltibia 24.8175
lfoot -5.01341 -3.69776
ltoes -27.7488
1121
root -2.53106 17.4254 2.9297 -171.655 -85.0751 170.016
lowerback 6.96507 1.24976 -4.00936
upperback -2.16279 1.21087 -1.10319
thorax -6.23691 0.720671 0.950491
lowerneck -23.8505 2.73233 -8.77706
upperneck 17.1619 6.07819 2.92252
head 8.92825 2.57108 3.27412
rclavicle -2.54941e-014 1.78906e-014
rhumerus 91.6704 -34.1086 -39.652
rradius 35.0945
rwrist -8.79274
rhand -38.6135 -14.0301
rfingers 7.12502
rthumb -11.6309 -43.6873
lclavicle -2.54941e-014 1.78906e-014
lhumerus 72.2408 33.9313 25.4001
lradius 41.2336
lwrist 21.3997
lhand -19.4938 23.4551
lfingers 7.12502
lthumb 6.82849 53.325
rfemur -5.74832 -0.844949 12.4823
rtibia 40.1676
rfoot -19.6509 2.63787
rtoes -2.91084
lfemur -9.7256 -8.35653 -3.85987
ltibia 23.8855
lfoot -2.71374 -3.01722
ltoes -28.112
1122
root -2.51372 17.5326 2.82887 -173.796 -86.089 172.279
lowerback 6.6251 1.25315 -3.79911
upperback -2.23734 1.24123 -1.22887
thorax -6.11411 0.723567 0.703836
lowerneck -23.7567 2.57945 -8.9275
upperneck 17.4942 5.85387 3.21917
head 9.02678 2.47967 3.37956
rclavicle -2.63887e-014 2.38542e-015
rhumerus 91.3434 -34.1651 -39.5078
rradius 34.8859
rwrist -9.00319
rhand -38.2156 -14.6823
rfingers 7.12502
rthumb -11.2472 -44.3608
lclavicle -2.63887e-014 2.38542e-015
lhumerus 71.29 33.1558 23.9109
lradius 42.2338
lwrist 22.2097
lhand -18.9773 23.2693
lfingers 7.12502
lthumb 7.32706 53.1224
rfemur -5.13227 -1.21188 13.2186
rtibia 38.934
rfoot -18.458 2.19833
rtoes -1.00576
lfemur -10.0986 -9.20886 -3.20809
ltibia 23.0945
lfoot -0.193722 -2.44422
ltoes -27.4905
1123
root -2.49465 17.6396 2.73616 -174.378 -87.035 173.025
lowerback 6.27522 1.32597 -3.70764
upperback -2.30378 1.35135 -1.37816
thorax -5.98252 0.769409 0.490741
lowerneck -23.7513 2.33992 -9.18431
upperneck 17.8546 5.53091 3.62223
head 9.15189 2.34692 3.52996
rclavicle 1.22253e-014 2.38542e-015
rhumerus 91.0715 -34.323 -39.3497
rradius 34.6676
rwrist -9.22394
rhand -37.7363 -15.2981
rfingers 7.12502
rthumb -10.7849 -45.0012
lclavicle 1.22253e-014 2.38542e-015
lhumerus 70.3553 32.4386 22.4484
lradius 43.2498
lwrist 23.1244
lhand -18.4697 23.1028
lfingers 7.12502
lthumb 7.81703 52.9383
rfemur -4.68943 -1.6673 13.7427
rtibia 37.8003
rfoot -17.0237 1.63484
rtoes -0.22835
lfemur -10.5989 -9.98449 -2.77785
ltibia 22.4599
lfoot 2.32717 -1.3212
ltoes -27.0614
1124
root -2.47498 17.7511 2.64753 -172.524 -87.8754 171.318
lowerback 5.92804 1.47231 -3.62616
upperback -2.28843 1.55955 -1.55383
thorax -5.7683 0.861969 0.247852
lowerneck -23.8593 2.00658 -9.65701
upperneck 18.1016 5.16117 4.02562
head 9.25835 2.18138 3.70866
rclavicle 2.11209e-014 -3.97569e-015
rhumerus 90.9227 -34.6042 -39.1367
rradius 34.4471
rwrist -9.49787
rhand -37.3597 -16.0365
rfingers 7.12502
rthumb -10.4217 -45.7582
lclavicle 2.11209e-014 -3.97569e-015
lhumerus 69.404 31.8659 20.9432
lradius 44.4093
lwrist 24.1175
lhand -18.1377 23.0001
lfingers 7.12502
lthumb 8.13743 52.8235
rfemur -4.32217 -2.19721 14.0687
rtibia 36.7427
rfoot -15.4161 1.09104
rtoes -0.690522
lfemur -11.1698 -10.8885 -2.54189
ltibia 22.0757
lfoot 4.49184 0.495027
ltoes -27.9608
